<?xml version="1.0" encoding="utf-8"?>
<!-- Generator: Adobe Illustrator 16.0.0, SVG Export Plug-In . SVG Version: 6.00 Build 0)  -->
<!DOCTYPE svg PUBLIC "-//W3C//DTD SVG 1.1//EN" "http://www.w3.org/Graphics/SVG/1.1/DTD/svg11.dtd">
<svg version="1.1" id="Layer_1" xmlns="http://www.w3.org/2000/svg" xmlns:xlink="http://www.w3.org/1999/xlink" x="0px" y="0px"
	 width="1024px" height="1024px" viewBox="0 0 1024 1024" enable-background="new 0 0 1024 1024" xml:space="preserve">
<path fill-rule="evenodd" clip-rule="evenodd" fill="#FFFFFF" d="M410,359c18.96,32.13,38.61,65.79,61,95
	c10.999,11.999,22.001,24.001,33,36c8.782,10.885,19.946,25.794,33,32c8.256,6.755,63.488-21.896,74-28
	c36.74-21.333,79.211-36.032,117-58c20.998-11.666,42.002-23.334,63-35c14.701-6.478,62.415-25.921,67-39
	c-20.998-12.332-42.002-24.668-63-37c-43.794-31.695-89.678-70.818-122-114c-18.645-24.91-23.097-68.032-67-68
	c-17.998,5.333-36.002,10.667-54,16c-49.329,16.332-98.671,32.668-148,49c-27.955,8.804-62.396,15.253-85,31
	c-9.634,6.712-13.405,23.138-20,33c-7.666,9.333-15.334,18.667-23,28c-34.871,43.541-86.173,84.994-139,110
	c-0.006,11.117,1.997,17.891,3,26c42.681-13.142,148.697-104.685,168-142c0.667-0.333,1.333-0.667,2-1
	c-2.787,15.442-16.022,24.501-24,35c-22.029,28.989-46.736,57.412-75,80c-16.926,13.527-41.379,27.647-52,47c0,3.667,0,7.334,0,11
	c0.333,0.333,0.667,0.667,1,1c15.135-3.871,30.664-16.153,43-24c-7.666,9.666-15.334,19.334-23,29c-7.909,5.881-3.593,6.176,0,14
	c1,0.667,2,1.333,3,2c35.316-25.409,80.517-78.82,107-114c16.231-21.562,27.944-41.283,49-58c1.333,0,2.667,0,4,0
	c7.459,15.25,10.199,34.246,17,51c29.959,73.803,81.918,180.685,137,228c32.127-3.714,60.756-26.841,86-40
	c56.615-29.512,117.795-57.072,174-86c19.566-10.07,73.018-24.693,75-49c-24.331,10.999-48.669,22.001-73,33
	c6.51-8.54,69.276-43.329,82-50c0-0.333,0-0.667,0-1c0-2.667,0-5.333,0-8c-26.245,3.774-52.141,27.631-75,38
	c-50.892,23.086-104.093,43.402-151,71c-19.988,11.76-58.799,38.908-84,41c-40.266-42.613-71.689-87.597-105-138
	c-17.845-27.001-45.98-58.247-46-101c0.667-0.333,1.333-0.667,2-1C391.333,322.332,400.667,340.668,410,359z M375,278
	c-25.06,15.031-34.562,15.347-53-7c0-1.333,0-2.667,0-4c5.933-4.518,10.62-7.137,18-11c24.063-0.537,24.835,8.621,35,21
	C375,277.333,375,277.667,375,278z"/>
<path fill-rule="evenodd" clip-rule="evenodd" fill="none" d="M412,421c0.63,31.4,74.468,136.737,95,152
	c39.771-6.493,90.427-45.082,126-60c0-0.333,0-0.667,0-1c-11.896,1.354-18.886,8.213-28,12c-29.325,12.185-61.338,29.629-94,34
	c-23.322-31.631-50.792-61.453-74-94C428.667,449.668,420.333,435.332,412,421z"/>
<path fill-rule="evenodd" clip-rule="evenodd" fill="#FFFFFF" d="M806,468c0.667,0,1.333,0,2,0c4.289,4.034,7.488,9.162,8,17
	c-8.399,18.419-14.402,31.438-11,55c0.333,0,0.667,0,1,0c8.993-3.536,10.188-6.935,16-13c0.333,0,0.667,0,1,0c1.667,4,3.333,8,5,12
	c-3.768,25.261-16.998,54.135-35,66c-1-0.333-2-0.667-3-1c-4.333-5.333-8.667-10.667-13-16c0-0.333,0-0.667,0-1
	c7.882-0.204,8.403-1.804,11-7c-2.153-14.124-17.431-20.842-22-34c-0.667-6-1.333-12-2-18c-3.333-1.333-6.667-2.667-10-4
	c-5.022,18.527-28.276,56.122-27,68c3.666-2,7.333-4,11-6c0,0.333,0,0.667,0,1c-8.168,22.446-20.448,31.587-31,49
	c0.667,1.667,1.333,3.333,2,5c7.621-0.005,3.816,2.769,6,7c1.963,2.066,0.375,1.035,4,2c5-1.333,10-2.667,15-4
	c-6.943,16.842-14.416,35.495-26,48c-6,5.666-12,11.334-18,17c5.291,8.197,13.459,10.157,21,16c0,0.333,0,0.667,0,1
	c-5.159,4.554-16.93,13.278-27,9c-16.508-8.696-14.134-41.757-31-50c-5.455,24.97-10.297,61.465-37,64c-0.667-0.333-1.333-0.667-2-1
	c-3.125-18.615-16.621-24.29-20-46c2.667,1.667,5.333,3.333,8,5c2.667-1.667,5.333-3.333,8-5c0-1.333,0-2.667,0-4
	c-8.333-12.332-16.667-24.668-25-37c-3.333-8.333-6.667-16.667-10-25c-1,0.667-2,1.333-3,2c-3.853,12.913-9.566,27.948-17,38
	c-6.711,9.075-17.434,14.658-21,27c0.667,0.333,1.333,0.667,2,1c4.753,0.816,5.933,0.322,10-1c-1,4.333-2,8.667-3,13
	c0.667,0,1.333,0,2,0c1.333,0.333,2.667,0.667,4,1c3-2.333,6-4.667,9-7c0,0.333,0,0.667,0,1c-9.768,32.831-24.209,48.135-39,73
	c0.667,1.667,1.333,3.333,2,5c0.667,0.333,1.333,0.667,2,1c3.666-0.667,7.333-1.333,11-2c0,0.333,0,0.667,0,1
	c-2.48,3.41-4.025,4.395-4,8c0.667,0,1.333,0,2,0c6.505,2.785,13.386-1.554,18-4c-5.768,16.943-22.625,29.287-43,31
	c-26.073-12.945-9.878-106.024-11-142c0-16.998,0-34.001,0-51c12.103-30.325,52.745-40.625,81-55
	c39.996-19.665,80.004-39.335,120-59C729.296,505.267,780.463,487.949,806,468z"/>
<path fill-rule="evenodd" clip-rule="evenodd" fill="none" d="M815,622c6.287-0.192,8.685,0.163,11,4
	c10.238,22.664-15.592,52.521-30,58c-2.309-17.364-15.657-22.936-22-36c-2.061-5.752-0.36-10.305,2-14
	c13.35-0.036,14.208,4.978,20,12c1-0.333,2-0.667,3-1C802.012,636.002,808.687,627.943,815,622z"/>
<path fill-rule="evenodd" clip-rule="evenodd" fill="#FFFFFF" d="M475,666c-1-23.664-2-47.336-3-71
	c-11.999-15.332-24.001-30.668-36-46c-14.332-21.998-28.668-44.002-43-66c-13.666-28.997-27.335-58.003-41-87
	c-6.208-15.012-8.594-33.288-17-46c-1.667,0-3.333,0-5,0c-26.71,26.517-46.461,60.336-70,90c-25.049,31.567-58.068,42.672-70,89
	c0,1,0,2,0,3c2-0.667,4-1.333,6-2c7.838,7.29-0.286,23.652,2,36c3.67,19.83,10.726,31.605,20,45c-2.529,5.887-4.839,8.06-9,12
	c-3.333-1.333-6.667-2.667-10-4c4.62,10.983,26.763,43.346,24,51c-2.065,2.091-2.594,1.888-7,2c0.333,2.667,0.667,5.333,1,8
	c0,0.333,0,0.667,0,1c-4.333,0-8.667,0-13,0c1.926,11.83,6.411,18.352,10,27c4,3.667,8,7.333,12,11c3-7.666,6-15.334,9-23
	c2-1.667,4-3.333,6-5c16.498,22.209,18.083,54.637,37,74c6.132,6.276,82.701,35.555,96,38c7.328-7.354,20.019-17.075,23-28
	c2.557-9.373-3.921-8.442,3-15c0-1,0-2,0-3c-3.192,0.758-5.59,4.763-12,6c-1.667-0.667-3.333-1.333-5-2
	c-0.333-1.667-0.667-3.333-1-5c19.375-17.037,27.477-42.861,37-70c1.667,0.667,3.333,1.333,5,2c15.246,13.399,0.821,56.409,33,64
	c0.333,1.667,0.667,3.333,1,5c-3.372,4.615-5.346,4.441-11,7c1.333,2.667,2.667,5.333,4,8c-1,1.667-2,3.333-3,5
	c-3-1.333-6-2.667-9-4c-6.856,23.036,12.936,47.73,21,61c2.333-0.333,4.667-0.667,7-1C478.339,788.42,475.002,722.777,475,666z
	 M341,582c2.667-1.667,5.333-3.333,8-5c3.667,0.667,7.333,1.333,11,2c8.952,4.861,7.281,16.968,4,26c-2.667,1.667-5.333,3.333-8,5
	c-9.113-0.398-10.942-3.127-16-7C337.99,595.253,338.894,589.607,341,582z M249,568c-7.333-3.333-14.667-6.667-22-10
	c-0.333-7.999-0.667-16.001-1-24c2.333-0.667,4.667-1.333,7-2c6,1.667,12,3.333,18,5c-0.333-7.999-0.667-16.001-1-24c1-1,2-2,3-3
	c7.999,2,16.001,4,24,6c0,9.666,0,19.334,0,29c7.666,3,15.334,6,23,9c0,8.333,0,16.667,0,25c-1,0.667-2,1.333-3,2
	c-9.502,1.488-12.711-2.996-21-5c-0.333,8.333-0.667,16.667-1,25c-0.667,1-1.333,2-2,3c-7.333-2-14.667-4-22-6
	C247.888,591.414,248.724,577.745,249,568z M268,652c21.122,0.809,33.99,12.701,52,18c19.947,5.869,35.895,5.471,50,15
	C388.189,756.751,214.444,699.933,268,652z M398,644c-2.333,2-4.667,4-7,6c-6.064,1.249-11.925,0.516-17-1
	c-3.313-4.566-8.913-12.453-5-21c2.394-6.584,5.262-6.9,11-10c3.333,0.667,6.667,1.333,10,2
	C398.525,623.955,399.498,632.771,398,644z M403,567c-3.358,7.854-9.125,9.64-21,9c-6.961-7.416-9.745-11.72-9-25
	c4.536-5.192,6.583-7.334,13-11C398.322,541.181,411.456,553.338,403,567z M436,611c-2.963,6.345-7.574,7.264-13,11
	c-3.667-1-7.333-2-11-3c-6.491-9.912-5.854-22.039,1-31c2.333-0.667,4.667-1.333,7-2c1.667,0.333,3.333,0.667,5,1
	C434.563,589.995,440.01,600.424,436,611z"/>
<path fill-rule="evenodd" clip-rule="evenodd" fill="none" d="M-927-143"/>
</svg>
