<?xml version="1.0" encoding="utf-8"?>
<!-- Generator: Adobe Illustrator 16.0.0, SVG Export Plug-In . SVG Version: 6.00 Build 0)  -->
<!DOCTYPE svg PUBLIC "-//W3C//DTD SVG 1.1//EN" "http://www.w3.org/Graphics/SVG/1.1/DTD/svg11.dtd">
<svg version="1.1" id="Layer_1" xmlns="http://www.w3.org/2000/svg" xmlns:xlink="http://www.w3.org/1999/xlink" x="0px" y="0px"
	 width="612px" height="792px" viewBox="0 0 612 792" enable-background="new 0 0 612 792" xml:space="preserve">
<path fill-rule="evenodd" clip-rule="evenodd" fill="#FFFFFF" d="M135,140c-7.354,4.63-17.819,4.228-19,15
	c7.357,5.929,11.008,15.63,23,17c9.816,6.481,26.994-6.101,29-12C158.029,149.082,157.133,139.688,135,140z"/>
<path fill-rule="evenodd" clip-rule="evenodd" fill="#FFFFFF" d="M433,166c1.333,0,2.667,0,4,0c0,0.667,0,1.333,0,2
	c-0.333,0-0.667,0-1,0c-1.766,2.553-3.707,3.938-7,5c0-1,0-2,0-3C430.333,168.667,431.667,167.333,433,166z"/>
<path fill-rule="evenodd" clip-rule="evenodd" fill="#FFFFFF" d="M262,170c1.593,1.374,1.089,0.658,2,3
	c-0.667,0.667-1.333,1.333-2,2c-0.667,0-1.333,0-2,0c0-1.333,0-2.667,0-4C261.697,170.372,261.009,170.753,262,170z"/>
<path fill-rule="evenodd" clip-rule="evenodd" fill="#FFFFFF" d="M360,210c1.333,0,2.667,0,4,0c0.869,1.463,1.818,2.848,3,4
	c-0.333,3.333-0.667,6.667-1,10c-1.667,0.333-3.333,0.667-5,1C358.172,220.467,357.094,215.353,360,210z"/>
<path fill-rule="evenodd" clip-rule="evenodd" fill="#FFFFFF" d="M449,270c0,1.667,0,3.333,0,5c-2.267,1.597-4.952,5.304-7,4
	c-1.911-1.721-1.625-1.413-2-5C442.981,271.125,442.71,270.102,449,270z"/>
<path fill-rule="evenodd" clip-rule="evenodd" fill="#FFFFFF" d="M184,206c7.413,14.958,16.203,30.566,25,45
	c22.274,36.546,45.757,71.703,71,105c4.666,4.333,9.334,8.667,14,13c7.532,9.886,16.752,20.794,26,29c3.99,3.541,8.955,5.514,12,10
	c26.258-0.959,54.234-24.881,75-34c27.197-11.942,51.471-27.346,78-39c29.597-13.002,58.021-25.642,85-42
	c10.801-6.549,23.542-14.937,35-20c4.666-1.667,9.334-3.333,14-5c9.112-5.296,19.766-13.545,31-16c0.667-2,1.333-4,2-6
	c-20.75-12.193-42.44-22.241-62-36c-11.074-7.79-21.948-16.708-33-25c-6-6-12-12-18-18c-18.717-14.144-35.815-29.382-50-48
	c-3-2.667-6-5.333-9-8c-8.627-11.328-16.584-22.054-25-34c-2.667-2.667-5.333-5.333-8-8c-0.667-4.333-1.333-8.667-2-13
	c-4.488-10.595-14.068-22.919-25-27c-15.311-5.716-30.233,2.167-42,6c-33.08,10.774-66.444,18.416-98,30
	c-40.665,14.928-82.9,25.03-122,41c-11.761,4.804-37.998,10.803-46,18c-8.153,7.332-12.05,21.561-18,31
	c-7.754,12.301-19.166,22.392-28,34c-7.666,7.333-15.334,14.667-23,22c-33.432,33.436-68.881,59.74-112,84
	c0.035,12.808,2.583,15.666,4,24c27.371-7.599,44.822-29,65-44c33.497-24.902,62.438-47.125,87-81c5.666-6,11.334-12,17-18
	c0.333,0,0.667,0,1,0c-3.05,19.953-23.64,34.073-34,48c-25.222,33.906-58.19,62.69-92,88c-8.999,8.999-18.001,18.001-27,27
	c0.333,3.667,0.667,7.334,1,11c9.609-0.673,39.956-18.695,45-25c0.333,0,0.667,0,1,0c-2.618,7.344-23.471,31.408-30,35
	c1.306,5.754,5.193,6.652,7,12c0.333,0,0.667,0,1,0c5.87-7.387,15.445-13.253,23-19c9.26-7.044,14.965-17.595,22-27
	c9.283-12.409,23.642-21.675,33-34c21.236-27.969,42.883-56.53,65-84c4-2.667,8-5.333,12-8c11.23,0.607,10.103,12.165,13,21
	c7.297,22.25,15.063,42.292,24,63c14.4,33.365,32.005,64.37,50,94c3.787,6.236,5.181,12.943,9,19c5.846,9.271,14.185,17.845,20,27
	c8.459,13.318,29.713,49.579,44,54c6.086,2.16,16.605-5.646,22-8c22.074-9.631,41.625-20.437,62-31
	c47.027-24.381,94.378-46.007,144-68c12.025-5.33,23.864-14.259,35-21c21.998-10.332,44.002-20.667,66-31
	c1.667-4.333,3.333-8.667,5-13c-0.333,0-0.667,0-1,0c-3.956-1.295-12.741,4.813-17,7c-16.998,7.999-34.002,16.001-51,24
	c-1.667,0-3.333,0-5,0c6.105-9.142,18.522-10.145,28-16c11.083-6.848,23.394-12.759,35-20c6.264-3.908,11.18-10.548,19-13
	c0.245-2.296,0.247-2.834,1-4c0-2,0-4,0-6c-8.029,2.226-14.405,7.584-21,11c-23.042,11.935-45.742,24.868-69,35
	c-33.487,14.589-68.703,27.653-99,46c-9.333,4.333-18.667,8.667-28,13c-19.506,11.861-39.928,20.943-61,32
	c-9.365,4.914-17.866,13.055-32,13c-47.145-46.745-83.862-100.961-120-159c-13.536-21.738-31.994-46.248-31-81
	C180.629,190.048,181.095,200.138,184,206z M427,319c-7.526,4.318-16.617,25.838-33,13c-2.339,1.573-0.283,6.395-2,11
	c-1.8,4.826-6.163,8.232-9,12c-7.468,0.963-13.923,0.489-20-2c-6.178,12.234-23.472,17.415-37,9c-14.638-9.104-39.185-46.499-23-70
	c4.042-5.868,19.672-10.11,30-6c20.336,8.092,26.249,25.409,37,43c7.612,0.045,9.812-1.313,14-4c-1.063-6.052-5.405-17.093-9-22
	c-0.057-9.854,3.123-8.926,7-14c9.724,0.538,12.467,14.434,16,21c2.091,0.456,4.535,0.975,6,2c2.301-0.761,2.239-1.04,4-2
	c-0.647-6.445-3.769-15.043-7-20c0.358-6.893,2.438-5.836,6-9c2.333,0,4.667,0,7,0c10.91,16.726,9.074,20.975,28,31
	C441.728,319.479,432.838,324.577,427,319z M491,214c-0.782-5.125-2.988-8.174-6-11c0.164-9.748,4.278-12.127,9-17
	c2.012,0.41,1.956,0.302,3,1c4.042,1.941,6.924,8.248,8,13c4.595-1.682,8.882-6.638,12-10c2.012,0.41,1.956,0.302,3,1
	c4.926,2.075,4.322,6.829,7,11c0.159,9.437-2.465,13.491-8,17c2.068,10.266,16.107,17.506,26,20c3.833,0.966,8.345-0.453,11,1
	c2.891,1.511,3.008,3.777,5,6c-0.034,7.292-1.614,9.161-3,14c-24.84,4.959-45.809-15.994-55-30c-4.539,0.476-12.966,2.56-17,0
	c-2.935-1.2-2.818-2.323-5-4C482.052,219.825,487.185,217.341,491,214z M448,292c9.448-0.835,17.38-12.486,26-6
	c2.769-1.624,2.984-4.839,4-8c5.352-1.253,13.026-2.973,17-6c0.667-0.333,1.333-0.667,2-1c0-0.667,0-1.333,0-2
	c-4.101-1.205-7.243,0.206-11,1c-7.146,1.511-11.934-2.099-16-4c-0.682-2.626-1.536-5.142-3-7c0.043-17.371,15.792-24.545,32-23
	c2.333,1.667,4.667,3.333,7,5c-0.058,3.085-0.361,5.125-1,7c-2.761,0.589-4.609,1.477-7,0c-3.818-0.037-7.549,0.166-10,1
	c0,1.333,0,2.667,0,4c5.757,0.408,18.543-1.553,24,2c3.876,1.357,5.841,4.023,7,8c2.319,3.683,0.251,8.404-1,11
	c-6.493,13.47-20.344,18.943-40,16c0,1.333,0,2.667,0,4c-10.553,11.571-27.956,22.687-46,9c-5.704-4.327-6.141-12.642-10-19
	c-0.417-23.113,24.38-31.223,42-20c1.18,2.845,1.911,4.724,2,9c-5.644,5.541-10.243,12.619-19,15
	C447.333,289.333,447.667,290.667,448,292z M414,170c1.946-6.504,7.429-11.077,11-16c2.875-0.655,5.988-1.457,8-3
	c3.935-0.121,9.636-0.494,12,1c16.118,5.884,1.22,27.228-8,30c0,0.667,0,1.333,0,2c8.674-0.072,13.576-3.681,18-8
	c5.158,0.246,5.951,1.207,9,3c0.277,13.761-19.314,30.992-33,21C422.004,199.02,410.071,183.13,414,170z M422,208
	c-0.523,5.208-9.459,12.757-13,10c-8.134-1.679-23.026-28.945-23-40c1.667-2,3.333-4,5-6C412.626,171.673,413.103,195.391,422,208z
	 M372,153c1.484-1.41,2.896-3.234,4-5c2.012-0.41,1.956-0.302,3-1c3,0,6,0,9,0c2,2,4,4,6,6c0.016,7.547-1.423,9.702-4,14
	c-1.251,0.556-3.016,1.225-4,2c-6.135-0.188-7.772-1.675-12-3C372.91,161.979,371.899,158.985,372,153z M340,203
	c1.245-3.621,3.34-5.8,7-7c1.975-1.44,4.66-1.871,8-2c-1.151-7.038-5.807-15.481-10-20c0.23-8.476,2.89-12.715,6-18
	c3.721-1.57,6.614-2.625,10,0c4.463,3.55,4.923,8.942,8,14c9.589,15.764,18.195,33.372,31,46c-0.482,7.396-3.96,9.392-7,14
	c-4.324,1.14-6.675,2.861-10,0c-7.139,1.03-3.384,3.293-7,7c-1.913,1.96-5.999,2.143-8,4c-6.146,0.066-11.563-0.356-15-3
	C345.209,235.343,330.894,214.517,340,203z M287,219c4.667,0.126,5.959,0.439,8,3c3.424-1.709,8.705-7.97,11-11
	c2.296-0.245,2.834-0.247,4-1c3.666,0,7.333,0,11,0c4.333,3.667,8.667,7.334,13,11c4.357,6.005,6.114,13.609,11,19
	c-0.124,2.526-0.169,3.706-1,5c-1.923,5.322-6.004,5.9-10,9c-9.211-0.234-13.49-11.217-17-17c-2.333,0-4.667,0-7,0
	c-1.631,8.237,2.269,16.101,7,21c-1.928,5.296-6.39,6.52-10,10c-7.666-0.831-23.824-24.229-26-31
	C278.562,229.412,284.603,222.596,287,219z M281,256c3.765,5.005,10.725,7.469,13,14c0.753,0.991,0.372,0.303,1,2
	c-4.333,4.666-8.667,9.334-13,14c-2,0-4,0-6,0c-8.946-9.249-18.094-19.867-25-31c-3.967-6.396-5.54-14.059-10-20
	c0.191-13.308,6.532-17.424,11-26c8.498,1.108,6.914,8.769,10,15C267.349,234.8,273.869,246.52,281,256z M226,167
	c5.938,0.69,6.88,4.912,9,9c6.406-1.418,12.499-5.256,17,1c1.594-2.577,2.013-9.575,3-12c2.091-0.456,4.535-0.974,6-2
	c2.526,0.124,3.706,0.169,5,1c3.798,1.457,3.632,3.409,6,6c-0.961,5.055-4.012,7.103-8,9c0.333,0.667,0.667,1.333,1,2
	c6.212-1.212,4.635-4.556,9-7c0.991-0.753,0.303-0.372,2-1c0.991,0.753,0.303,0.372,2,1c1.366,8.07-3.114,8.744-8,13
	c-5.712,0.151-9.479-0.043-12-3c-0.333,0-0.667,0-1,0c0.41,2.012,0.302,1.956,1,3c-0.412,5.265-1.733,4.854-4,5
	c-3.925-1.62-5.407-6.239-7-10c-2.843,0.122-4.277,0.413-6,1c0.252,5.856,2.023,8.974,5,12c-0.756,3.907-0.611,3.801-4,5
	c-0.991,0.753-0.303,0.372-2,1c-4.831-6.561-7.547-15.898-13-22c-0.592-0.806-0.03-0.242-1,0c-3.182,1.323-3.473,3.169-6,5
	c1.474,8.921,7.034,12.393,9,21c-0.753,0.991-0.372,0.303-1,2c-1.667,0.64-1.019,0.253-2,1c-7.277-1.445-10.419-10.955-13-17
	c-2.146-0.691-8.07-0.849-10-2c-1-0.333-2-0.667-3-1C201.555,174.859,221.498,175.296,226,167z"/>
<path fill-rule="evenodd" clip-rule="evenodd" fill="#FFFFFF" d="M205,302c-0.355,20.885,12.827,35.652,21,49
	c9.281,15.158,15.638,31.064,25,46c4.464,7.121,12.069,12.328,17,19c10.709,14.492,20.762,29.1,33,42
	c23.594-7.949,43.487-20.786,65-30c23.274-9.968,42.526-19.271,62-32c0-0.333,0-0.667,0-1c-1.333,0-2.667,0-4,0
	c-12.631,10.538-32.781,12.189-49,19c-18.638,7.826-47.345,25.476-70,27c-9.429-14.334-24.713-25.413-35-39
	c-7.464-9.859-12.815-20.758-20-31c-5.996-8.548-14.012-16.504-20-25C220.667,332.758,216.106,313.635,205,302z"/>
<path fill-rule="evenodd" clip-rule="evenodd" fill="#FFFFFF" d="M323,310c2.333,0.333,4.667,0.667,7,1
	c5.746,8.337,10.131,10.521,10,26c-1.875,0.639-3.915,0.942-7,1c-6.638-6.814-12.115-11.038-13-24
	C321.187,312.838,322.105,311.457,323,310z"/>
<path fill-rule="evenodd" clip-rule="evenodd" fill="#FFFFFF" d="M508,525c-0.333,2.333-0.667,4.667-1,7
	c2.676,1.438,4.218,1.982,9,2c2.582-1.867,8.086-2.716,11-4c0,1,0,2,0,3c-7.716,9.021-11.314,25.605-18,36
	c-5.127,7.972-22.446,17.941-25,26c2.667,3.667,5.333,7.333,8,11c6.296,3.24,10.089-0.712,12,7c-7.421,4.326-13.381,8.656-25,9
	c-10.763-11.205-13.146-27.468-22-41c-2.351-3.593-6.512-6.364-9-10c-0.333,0.333-0.667,0.667-1,1c-6.123,7.55-1.559,17.804-5,29
	c-3.476,11.307-19.742,31.227-32,34c-1.863-3.579-2.641-9.443-5-13c-6.971-10.508-15.347-15.043-16-33c0.667,0,1.333,0,2,0
	c1.895,2.896,2.385,3.556,7,4c3.212-4.022,5.768-2.317,6-10c-7.507-8.503-19.293-24.698-24-35c-3.548-7.766-4.839-23.05-12-27
	c0,0.333,0,0.667,0,1c-6.447,5.479-8.39,17.771-12,26c-5.767,13.145-27.669,29.998-29,42c3.301,0.992,4.132,1.833,9,2
	c0.981-0.747,0.333-0.36,2-1c0,0.667,0,1.333,0,2c-2.351,2.967-1.836,6.104-1,10c3.21,0.25,3.177,0.954,5,0
	c4.125-1.311,5.847-3.858,9-6c0,1.333,0,2.667,0,4c-4.192,6.363-3.929,15.711-7,23c-5.043,11.971-14.869,22.775-23,32
	c-3.061,3.473-9.692,11.49-8,16c1.428,4.4,3.068,5.059,9,5c0.984-0.775,2.749-1.444,4-2c0,1,0,2,0,3c-2.317,1.674-2.296,1.437-3,5
	c0.667,0,1.333,0,2,0c4.61,3.047,12.65-0.366,16-2c0,1,0,2,0,3c-3.146,2.627-3.533,6.646-6,10c-3.62,4.92-26.494,14.786-34,16
	c-3-2-6-4-9-6c-6.952-9.685-5.121-27.035-5-41c0.235-27.258,4.992-57.7,5-84c-0.667-3-1.333-6-2-9c-2.459-11.461,0.632-26.884,1-37
	c0-5.333,0-10.667,0-16c1.02-2.98,5.273-5.547,7-8c4.331-6.152,7.966-15.722,14-20c5.333-1.667,10.667-3.333,16-5
	c11.471-4.83,23.65-11.047,35-17c32.908-17.259,67.679-36.951,102-52c18.249-8.001,39.116-12.83,56-23
	c14.377-8.661,32.153-13.146,47-22c9.438-5.628,22.835-15.385,35-17c1.748,3.693,4.179,8.248,7,11c-5.327,24.61-16.917,30.171-11,61
	c0.333,0,0.667,0,1,0c2.891-2.666,6.23-1.822,10-4c1.534-0.886,5.174-11.246,6-9c5.02,5.188,5.678,13.791,3,22
	c-4.713,14.447-18.406,51.739-33,54c-4.508-5.59-11.305-8.429-14-16c9.27-0.046,10.57-4.216,10-14c-8.206-5.713-16.985-18.383-21-28
	c-1.333-6.333-2.667-12.667-4-19c-3.092-3.028-6.251-3.013-11-2c-3.42,14.529-7.79,30.358-15,42c-3.828,6.181-10.712,10.27-12,19
	c1.025,1.465,1.544,3.909,2,6c1,0,2,0,3,0c1.844-2.798,3.284-3.962,7-5c0,0.333,0,0.667,0,1c-5.701,7.688-6.784,19.168-12,27
	c-5.214,7.83-16.998,12.502-18,24c0.747,0.981,0.36,0.333,1,2C504,525,506,525,508,525z"/>
<path fill-rule="evenodd" clip-rule="evenodd" fill="#FFFFFF" d="M611,506c1.667,0,3.333,0,5,0c1.288,1.816,1.945,1.747,3,4
	c3.693,4.904,1.751,15.832,0,21c-6.613,19.522-17.682,22.08-27,37c-0.333-0.333-0.667-0.667-1-1c-3.77-5.617-4.224-12.793-8-18
	c-6.097-8.406-15.608-11.549-16-26c1.707-1.74,1.545-2.751,4-4c8.893-5.315,14.66,8.007,19,11c0,0.333,0,0.667,0,1
	c0.333-0.333,0.667-0.667,1-1c6.19-4.622,7.2-12.904,12-19C605.667,509.333,608.333,507.667,611,506z"/>
<path fill-rule="evenodd" clip-rule="evenodd" fill="#FFFFFF" d="M268,528c-0.333-14.665-0.667-29.335-1-44
	c-2.663-9.946-12.526-18.198-18-26c-14.662-20.896-30.775-40.551-45-62c-23.776-35.853-42.657-78.642-60-120
	c-5.64-13.448-8.324-28.085-14-41c-10.656-1.534-29.659,28.305-36,37c-20.773,28.484-43.263,56.377-68,81
	c-10.682,10.632-33.782,26.644-39,41c-1.519,2.555-0.528,9.423-2,12c0,3,0,6,0,9c2.229-0.659,2.62-0.763,4-2
	c2.676,0.949,2.936,1.711,5,3c-0.085,29.282-2.604,44.535,10,65c2.845,4.619,3.741,8.894,8,12c-0.336,8.354-3.395,9.465-7,14
	c-4.458,0.058-6.797-0.046-9-2c-0.667,0-1.333,0-2,0c3.7,8.747,6.746,17.708,12,25c3.4,4.72,8.89,7.86,11,14
	c1.595,2.504,1.155,8.882,1,13c-2.012-0.41-1.956-0.302-3-1c-2.588,0.214-3.4,0.454-5,1c0.245,2.296,0.247,2.834,1,4
	c-0.375,3.587-0.089,3.279-2,5c-1.163,0.603-6.901,0.445-9-1c-0.333,0-0.667,0-1,0c1.011,19.71,11.49,24.851,19,37
	c8.771-4.712,7.772-21.12,16-27c2.323-7.159,7.869,17.283,9,20c6.731,16.173,18.003,38.459,28,52c4.041,5.474,23.427,9.842,31,13
	c15.739,6.563,31.64,14.395,47,21c4.875,2.096,10.933,2.126,15,5c12.855-1.573,19.689-19.971,27-28c-0.314-4.2-0.607-5.088-3-7
	c1.117-3.155,2.475-4.374,5-6c0-1.333,0-2.667,0-4c-2.224,1.688-4.951,4.009-7,6c-4.24-0.017-6.723-0.239-9-2
	c-0.667-0.333-1.333-0.667-2-1c1.388-9.221,11.564-14.957,16-22c9.8-15.561,14.187-34.002,22-52c3.766,0.336,4.517,0.888,7,2
	c10.281,28.298,4.693,53.43,33,65c-0.507,6.793-4,10.614-11,11c0.731,2.713,1.393,4.287,3,6c-0.225,4.167-0.699,4.572-2,7
	c-5.095-0.052-6.591-0.543-9-3c-0.333,0-0.667,0-1,0c0.341,5.196-1.573,9.879,0,16c4.372,17.012,14.308,29.226,22,44
	c1.667-0.333,3.333-0.667,5-1c2.105-4.724,4.717-12.045,6-17c0-10.999,0-22.001,0-33c0.614-2.975,1.733-9.453,1-14
	c0.333-9.999,0.667-20.001,1-30c-1.645-8.018-0.001-17.169,0-27C268,573.335,268,550.665,268,528z M137,463
	c2.134-0.525,3.593-0.918,5-2c5.318-0.172,10.309-0.358,13,2c6.96,3.348,6.691,12.481,6,21c-3.399,3.577-6.42,6.603-10,10
	c-9.929,0.076-11.631-2.339-17-6C131.512,477.913,132.459,470.423,137,463z M21,441c-1.575-3.493-1.11-17.372-1-24
	c14.51-2.314,9.931,0.965,24,3c-0.133-8.716-0.954-20.345,2-26c8.187,0.163,20.828,2.337,25,7c1.067,1.875,2.042,22.754,0,26
	c2.639,6.16,18.14,9.047,24,12c0.419,15.804,1.698,20.424-7,28c-7.112-1.075-11.424-4.386-17-7c-2.393,7.567,1.38,21.147-2,26
	c-0.932,2.122-0.875,1.466-2,3c-9.508-0.837-16.9-4.694-24-8c0-9.333,0-18.667,0-28C40.571,448.554,24.73,447.82,21,441z M64,578
	c-9.307-7.11-6.301-16.221-12-26c1.169-8.664,5.277-11.191,10-16c15.809,0.321,22.561,7.797,34,12c9.329,3.428,18.774,5.678,28,8
	c9.32,2.346,18.122,0.707,26,4c7.219,3.018,10.465,8.72,16,13C167.905,629.063,83.637,593.001,64,578z M191,529
	c-3.642,5.551-15.502,10.255-22,4c-4.927-1.904-4.923-6.452-8-10c-0.032-10.21,2.426-13.147,6-19c2.134-0.525,3.593-0.918,5-2
	c5.327-0.138,10.134-0.198,13,2C191.257,506.229,197.069,521.505,191,529z M199,450c-3.188,3.449-3.975,7.208-9,9
	c-12.585,9.189-28.034-7.273-24-22c1.735-6.336,6.621-9.256,11-13c11.351-0.088,13.799,2.8,20,7
	C198.298,436.333,199.151,442.351,199,450z M231,496c-4.217,4.067-8.139,6.293-13,10c-7.927-0.09-10.297-2.185-15-5
	c-1.914-6.632-5.607-17.962,0-24c1.568-4.246,4.091-4.358,7-7c3.667,0,7.333,0,11,0C227.935,478.481,232.442,480.667,231,496z"/>
</svg>
